<svg width="35" height="35" viewBox="0 0 35 35" fill="none" xmlns="http://www.w3.org/2000/svg">
<g id="google-svgrepo-com 1">
<path id="Vector" d="M26.3867 27.3438C29.4629 24.4727 30.8301 19.6875 30.0098 15.1074H17.7734V20.166H24.7461C24.4727 21.8066 23.5156 23.1738 22.1484 24.0625L26.3867 27.3438Z" fill="#4285F4"/>
<path id="Vector_2" d="M6.15234 23.3105C7.05161 25.082 8.34128 26.6262 9.92414 27.8268C11.507 29.0273 13.3417 29.8529 15.29 30.2412C17.2384 30.6296 19.2494 30.5706 21.1716 30.0686C23.0938 29.5667 24.877 28.635 26.3867 27.3438L22.1484 24.0625C18.5254 26.4551 12.5098 25.5664 10.459 19.9609L6.15234 23.3105Z" fill="#34A853"/>
<path id="Vector_3" d="M10.459 19.9609C9.91212 18.252 9.91212 16.6797 10.459 14.9707L6.15236 11.6211C4.58009 14.7656 4.10158 19.209 6.15236 23.3105L10.459 19.9609Z" fill="#FBBC02"/>
<path id="Vector_4" d="M10.459 14.9707C11.9629 10.2539 18.3887 7.51954 22.6953 11.5527L26.4551 7.86134C21.123 2.73438 10.7324 2.93946 6.15234 11.6211L10.459 14.9707Z" fill="#EA4335"/>
</g>
</svg>
