<svg width="35" height="35" viewBox="0 0 35 35" fill="none" xmlns="http://www.w3.org/2000/svg">
<g id="otp-svgrepo-com 1" clip-path="url(#clip0_62_1386)">
<path id="Vector" d="M17.5 35.0001C27.165 35.0001 35.0001 27.165 35.0001 17.5C35.0001 7.83503 27.165 0 17.5 0C7.83503 0 0 7.83503 0 17.5C0 27.165 7.83503 35.0001 17.5 35.0001Z" fill="white"/>
<path id="Vector_2" d="M10.6638 6.92651C10.012 6.92651 9.48364 7.45484 9.48364 8.10672V26.9945C9.48364 27.6464 10.012 28.1747 10.6638 28.1747H24.2392C24.8911 28.1747 25.4194 27.6464 25.4194 26.9945V12.3931L19.7292 6.92651H10.6638Z" fill="#CB7429"/>
<g id="Group">
<path id="Vector_3" d="M25.4192 12.3931H20.9095C20.2576 12.3931 19.7292 11.8648 19.7292 11.2129V6.92651L25.4192 12.3931Z" fill="#B56027"/>
<path id="Vector_4" d="M19.4939 20.0705C19.4939 20.823 18.884 21.4328 18.1322 21.4328H8.18814C7.43568 21.4328 6.82642 20.823 6.82642 20.0705V15.909C6.82642 15.1565 7.43576 14.5469 8.18814 14.5469H18.1322C18.884 14.5469 19.4939 15.1565 19.4939 15.909V20.0705Z" fill="#B56027"/>
</g>
<g id="Group_2">
<path id="Vector_5" d="M10.6541 16.7C10.9412 16.7 11.1879 16.7584 11.3935 16.8747C11.5996 16.991 11.7555 17.1568 11.8611 17.3715C11.9666 17.5862 12.0197 17.8383 12.0197 18.1281C12.0197 18.3423 11.991 18.5368 11.9329 18.7118C11.8749 18.8867 11.7881 19.0387 11.6724 19.1669C11.5566 19.2951 11.414 19.3935 11.2455 19.4615C11.0769 19.5294 10.8832 19.5635 10.6654 19.5635C10.4488 19.5635 10.255 19.5287 10.0838 19.4588C9.91253 19.3888 9.76963 19.2905 9.65494 19.1631C9.54025 19.0357 9.45377 18.8829 9.3952 18.7041C9.33686 18.5253 9.30762 18.3319 9.30762 18.1241C9.30762 17.9113 9.33804 17.7159 9.39912 17.5385C9.46049 17.3608 9.54889 17.2099 9.66468 17.0851C9.78048 16.9602 9.92168 16.8651 10.0878 16.7988C10.2537 16.7324 10.4424 16.7 10.6541 16.7ZM11.4511 18.1242C11.4511 17.9214 11.4184 17.7457 11.353 17.5972C11.2875 17.4488 11.1941 17.3364 11.0722 17.2601C10.9509 17.1838 10.8114 17.1457 10.6538 17.1457C10.542 17.1457 10.4383 17.1667 10.343 17.209C10.248 17.2512 10.1661 17.3126 10.0974 17.3933C10.0288 17.474 9.97493 17.5768 9.9349 17.7022C9.89539 17.8277 9.87553 17.9683 9.87553 18.1244C9.87553 18.282 9.89539 18.424 9.9349 18.5514C9.975 18.6785 10.0308 18.7841 10.1032 18.8677C10.1756 18.9515 10.2588 19.0142 10.3525 19.0556C10.4461 19.097 10.5492 19.1181 10.6611 19.1181C10.8049 19.1181 10.9367 19.0822 11.0568 19.0103C11.1773 18.9385 11.2729 18.8277 11.344 18.6779C11.4154 18.528 11.4511 18.3434 11.4511 18.1242Z" fill="white"/>
<path id="Vector_6" d="M14.1505 17.2102H13.5384V19.2219C13.5384 19.3377 13.5124 19.4236 13.461 19.4797C13.4096 19.5358 13.3425 19.5637 13.2606 19.5637C13.1775 19.5637 13.1098 19.5353 13.0578 19.4786C13.0056 19.422 12.9793 19.3363 12.9793 19.2217V17.21H12.3673C12.2714 17.21 12.2004 17.189 12.1539 17.1467C12.1075 17.1044 12.084 17.0488 12.084 16.9795C12.084 16.9076 12.1083 16.851 12.1567 16.8095C12.2053 16.7681 12.2755 16.7471 12.3675 16.7471H14.1507C14.2477 16.7471 14.3198 16.7686 14.3668 16.8112C14.4143 16.854 14.4378 16.9101 14.4378 16.9792C14.4378 17.0482 14.4137 17.1041 14.366 17.1464C14.3182 17.1886 14.2463 17.2102 14.1505 17.2102Z" fill="white"/>
<path id="Vector_7" d="M15.8449 18.4378H15.3312V19.2218C15.3312 19.3339 15.3047 19.4188 15.2519 19.4768C15.1991 19.5349 15.1323 19.5636 15.0516 19.5636C14.967 19.5636 14.8991 19.5349 14.8477 19.4777C14.7963 19.4204 14.7703 19.3362 14.7703 19.2254V17.091C14.7703 16.9675 14.7987 16.8794 14.8553 16.8266C14.912 16.7738 15.0021 16.7473 15.1256 16.7473H15.8452C16.0582 16.7473 16.2215 16.7636 16.3362 16.7964C16.4495 16.828 16.5475 16.8802 16.63 16.9531C16.7126 17.0261 16.775 17.1156 16.8181 17.2214C16.8613 17.3273 16.8822 17.4461 16.8822 17.5784C16.8822 17.8605 16.7955 18.0742 16.6217 18.2198C16.4479 18.3655 16.1887 18.4378 15.8449 18.4378ZM15.7088 17.1684H15.331V18.0148H15.7088C15.8411 18.0148 15.9516 18.001 16.04 17.9734C16.129 17.9458 16.1965 17.9004 16.2431 17.8374C16.2898 17.7744 16.3131 17.6921 16.3131 17.5898C16.3131 17.4677 16.2772 17.3682 16.2053 17.2914C16.1249 17.2093 15.9596 17.1684 15.7088 17.1684Z" fill="white"/>
</g>
</g>
<defs>
<clipPath id="clip0_62_1386">
<rect width="35" height="35" fill="white"/>
</clipPath>
</defs>
</svg>
